<svg xmlns="http://www.w3.org/2000/svg" width="512" height="512"><g fill="#5422af"><path d="M183.896 349.612q2.612-.006 5.225-.016c4.684-.014 9.367-.009 14.051.001 4.93.008 9.86 0 14.79-.004 8.274-.006 16.548.002 24.823.016 9.53.016 19.062.01 28.593-.006a9435 9435 0 0 1 24.664-.007c4.893.004 9.787.005 14.68-.005q6.906-.012 13.81.015 2.515.006 5.032-.004c23.635-.085 44.523 5.559 62.28 22.093 16.739 17.891 20.726 40.066 20.343 63.742L412 452h40v-84h56c.241 29.257.241 29.257.302 43.765.033 7.83.075 15.658.15 23.487q.092 9.303.113 18.604.01 4.92.07 9.837c.043 3.674.049 7.347.046 11.02l.066 3.242c-.072 8.858-2.665 16.981-9.065 23.352-6.384 5.318-12.321 6.996-20.586 6.956l-2.37.012c-2.622.012-5.245.009-7.868.006l-5.695.018c-5.219.016-10.438.02-15.658.021-5.628.004-11.256.019-16.884.032-12.308.028-24.616.04-36.923.048q-11.528.01-23.056.023a76785 76785 0 0 1-80.396.057l-2.078.001c-22.236.007-44.471.04-66.706.086q-35.276.075-70.553.079c-12.816.002-25.632.013-38.448.05q-16.37.047-32.74.024a2591 2591 0 0 0-16.701.022q-7.65.037-15.3-.001-2.763-.007-5.524.02C31.65 508.854 22.888 508.492 14 502c-9.546-9.659-10.159-20.165-10.114-33.076v-3.313q.002-5.397.016-10.795l.005-7.503q.004-8.85.021-17.7.019-12.842.026-25.684c.01-11.976.029-23.953.046-35.929h57v84h38c-.118-10.843-.118-10.843-.27-21.686-.214-22.847 6.105-43.125 21.965-60.158 17.698-16.558 39.765-20.638 63.201-20.544M303 99l2.973 1.3c26.185 12.248 47.11 35.548 57.027 62.7 9.796 30.884 8.612 63.3-6.176 92.41-4.18 7.845-8.966 14.883-14.824 21.59l-1.668 2.066C323.5 299.497 297.717 311.18 272 315c-20.973 1.252-39.726-.453-59-9l-2.973-1.3c-26.185-12.248-47.11-35.548-57.027-62.7-9.796-30.884-8.612-63.3 6.176-92.41 4.18-7.845 8.966-14.883 14.824-21.59l1.668-2.066C205.792 89.37 260.872 80.319 303 99M44.53 3.773h3.315c3.577 0 7.153.016 10.73.032l7.485.008q9.807.014 19.614.05c7.86.025 15.721.033 23.582.045 11.914.019 23.83.057 35.744.092v57H61v84H4c-.08-27.55-.08-27.55-.098-39.324-.012-8.024-.026-16.047-.053-24.07q-.032-9.707-.039-19.413-.005-3.697-.021-7.394c-.015-3.46-.017-6.921-.016-10.382l-.022-3.065C3.781 30.745 5.174 21.437 12 13c9.324-8.834 20.215-9.315 32.53-9.227M368 4c27.55-.08 27.55-.08 39.324-.098 8.024-.012 16.047-.026 24.07-.053q9.706-.032 19.413-.039 3.697-.004 7.394-.021c3.46-.015 6.921-.017 10.382-.016l3.065-.022C482.21 3.781 491.626 5.138 500 12c5.233 6.032 8.129 10.987 8.12 18.999l.004 3.05-.01 3.329v3.519c0 3.842-.009 7.683-.016 11.525l-.005 7.987q-.004 9.44-.021 18.88-.017 11.802-.023 23.606c-.01 14.035-.03 28.07-.049 42.105h-56V61h-84z"/></g></svg>