<svg width="24" height="24" xmlns="http://www.w3.org/2000/svg" fill="currentColor">

 <g>
  <title>Layer 1</title>
  <path fill="#5422b0" stroke="null" id="svg_1" d="m6.02517,14.49555c-0.2738,0.7361 -0.50624,1.41706 -0.71415,2.10464c1.13247,-0.8224 2.48069,-1.34446 4.03493,-1.53878c2.96714,-0.37082 5.6027,-2.33001 6.93712,-4.79131l-1.7187,-1.71755l1.66782,-1.67019c0.39396,-0.39447 0.78781,-0.78867 1.18177,-1.18259c0.50683,-0.5069 1.0793,-1.44503 1.68482,-2.79514c-6.60328,1.02348 -10.64664,5.06659 -13.07361,11.59093zm11.87779,-5.94476l1.18059,1.17976c-1.18059,3.54179 -4.72236,7.08356 -9.44473,7.67385c-3.15045,0.39385 -5.1188,2.55822 -5.90503,6.49325l-2.3591,0c1.18059,-7.08355 3.54177,-23.61184 21.25064,-23.61184c-1.17953,3.53862 -2.35906,5.89875 -3.53859,7.0804c-0.39727,0.39723 -0.79052,0.79076 -1.18378,1.18457z"/>
 </g>
</svg>