<svg height="512" width="512" xmlns="http://www.w3.org/2000/svg"><g fill="#5422af"><path d="m0 0c1.74140245-.00407629 3.48280232-.00942404 5.22419739-.01593018 4.68391963-.01355385 9.36763869-.00842482 14.05156135.00113726 4.92969188.00765904 9.85936796.00053381 14.7890606-.0041585 8.27448572-.00543952 16.5488908.00168649 24.82336425.01602173 9.531177.016323 19.06216139.01103321 28.59333372-.00547921 8.22129228-.0136665 16.44252697-.01550941 24.66382695-.007684 4.89357514.00464826 9.7870601.00538061 14.68062925-.00460946 4.60324694-.00874301 9.20624846-.00251562 13.80946922.01468277 1.67721782.00392604 3.35445673.00289853 5.03166581-.003788 23.63552554-.08545326 44.52319116 5.55873759 62.28015708 22.09330368 16.73882071 17.89113083 20.72622936 40.0657002 20.34375 63.7421875-.06187499 5.465625-.12374999 10.93125-.1875 16.5625h40c0-27.72 0-55.44 0-84h56c.24098202 29.25700112.24098202 29.25700112.30152321 43.76479149.03317915 7.82944022.07522378 15.65849464.15111351 23.48764992.06008055 6.20119461.09857774 12.40209738.11189425 18.60357499.00777617 3.27938368.0290768 6.55774537.06984938 9.8369081.04384794 3.67414137.04954149 7.34657988.046772 11.02094269.02157165 1.06959458.04314331 2.13918915.06536865 3.24119568-.07178368 8.85792244-2.6648125 16.98114948-9.06417274 23.35241318-6.38475617 5.31741315-12.32148326 6.9959816-20.58672333 6.95537948-.78166818.00410527-1.56333635.00821054-2.36869145.01244021-2.62308145.01132202-5.24595228.00842781-7.86905384.00558805-1.89816144.00516832-3.7963207.01119492-5.69447696.0180068-5.21941304.01613466-10.43877107.01971884-15.6582061.02119494-5.62800351.00370204-11.25597849.0187972-16.8839655.03227043-12.30790518.02716382-24.61579733.03921562-36.92372751.04802132-7.68513944.00552529-15.37027386.01400007-23.05540991.02300834-21.27797889.0243849-42.55595247.04505441-63.83394432.05175019-1.37559527.00044326-2.75119054.00088683-4.1267858.0013307-1.37888577.00044128-2.75777154.00088224-4.13665731.0013229-2.76620416.00088509-5.53240832.00177933-8.29861247.00267934-.68585606.00021879-1.37171212.00043757-2.07835169.00066298-22.23541863.00726014-44.47070681.03909745-66.70607549.08571775-23.51749158.0492182-47.03488212.07661956-70.55243432.07902216-12.81625353.00183336-25.63233624.01333417-38.44854271.04963923-10.91340479.03080597-21.82658595.04104068-32.74002595.02452379-5.56712941-.00781174-11.13380853-.00596096-16.70088248.0221147-5.10041723.02548675-10.20004603.02307667-15.30046223-.00118143-1.8412139-.00391262-3.68248374.00223721-5.52361909.01968873-10.54467111.09358996-19.30727596-.26853261-28.1956998-6.76065666-9.54561713-9.65881295-10.15893969-20.16490835-10.11352539-33.07592773-.00014602-1.09342209-.00029205-2.18684418-.0004425-3.31340027.00069419-3.59810907.00846346-7.19616576.01631165-10.79426575.00186593-2.50106274.003289-5.00212585.00428771-7.50318908.00342224-5.90007605.01129608-11.8001329.02134949-17.7002011.01426935-8.56126463.01948171-17.12253567.0258078-25.68380922.00968507-11.97641773.02885132-23.95278671.04621124-35.92920685h57v84h38c-.11766525-10.84313545-.11766525-10.84313545-.27026367-21.68579101-.21367478-22.84681533 6.10553283-43.12538325 21.96557617-60.15795899 17.69781227-16.55795316 39.76432827-20.63786922 63.20117188-20.54443359z" transform="translate(183.896484 349.611816)"/><path d="m0 0c.98097656.42925781 1.96195313.85851562 2.97265625 1.30078125 26.18583221 12.24765538 47.10963616 35.54746191 57.02734375 62.69921875 9.7955464 30.88404758 8.61212025 63.29913457-6.17578125 92.41015625-4.18070723 7.84518801-8.96622 14.88285967-14.82421875 21.58984375-.55042969.68191406-1.10085938 1.36382812-1.66796875 2.06640625-16.83250961 20.43090834-42.61479744 32.11237287-68.33203125 35.93359375-20.97326598 1.25169722-39.72574451-.45315849-59-9-.98097656-.42925781-1.96195312-.85851562-2.97265625-1.30078125-26.18583221-12.24765538-47.10963616-35.54746191-57.02734375-62.69921875-9.7955464-30.88404758-8.61212025-63.29913457 6.17578125-92.41015625 4.18070723-7.84518801 8.96622-14.88285967 14.82421875-21.58984375.55042969-.68191406 1.10085937-1.36382812 1.66796875-2.06640625 30.12365721-36.5633939 85.20438833-45.61438209 127.33203125-26.93359375z" transform="translate(303 99)"/><path d="m0 0c1.64100929-.00043808 1.64100929-.00043808 3.31517029-.00088501 3.57642354.00138108 7.15263252.01688433 10.72901916.03262329 2.49534492.00373448 4.9906913.0065794 7.48603821.00857544 6.53804133.0076022 13.07599248.02722117 19.61399841.04940796 7.86043497.02543646 15.72091826.03325567 23.58138276.04490662 11.91484982.01933309 23.82950216.05767965 35.74436187.09242248v57c-27.72 0-55.44 0-84 0v84c-18.81 0-37.62 0-57 0-.08021762-27.55029548-.08021762-27.55029548-.09765625-39.32421875-.01193995-8.02330382-.02604173-16.0465557-.05322265-24.06982422-.02178397-6.47093837-.03370148-12.94182761-.03887558-19.41279983-.00368578-2.46464562-.01088312-4.92928866-.02170563-7.39391327-.01458858-3.46097176-.01651473-6.9217423-.01559067-10.38274002-.00719055-1.01132996-.0143811-2.02265991-.02178955-3.06463623.03049964-10.606837 1.42280283-19.91471573 8.24884033-28.35186768 9.32388804-8.83401651 20.21486658-9.31492392 32.5300293-9.22705078z" transform="translate(44.530029 3.772949)"/><path d="m0 0c27.55029548-.08021762 27.55029548-.08021762 39.32421875-.09765625 8.02330382-.01193995 16.04655571-.02604174 24.06982422-.05322266 6.47093837-.02178397 12.94182761-.03370147 19.41279983-.03887558 2.46464562-.00368577 4.92928866-.01088312 7.39391327-.02170562 3.46097176-.01458858 6.9217423-.01651473 10.38274002-.01559067 1.01132996-.00719055 2.02265992-.0143811 3.06463623-.02178955 10.56185825.0303703 19.97762498 1.38700266 28.35186768 8.24884033 5.23305624 6.03228665 8.12870551 10.98717644 8.12025452 18.99871826.00206199 1.51017449.00206199 1.51017449.00416565 3.05085755-.00359528 1.09835678-.00719056 2.19671356-.01089478 3.32835388.00014603 1.161259.00029205 2.322518.00044251 3.51896667-.00069715 3.84167849-.00848036 7.68330861-.01631165 11.52497864-.00186488 2.66229332-.00333764 5.32458395-.00428772 7.98687744-.00310712 6.29329253-.01131218 12.58656766-.02134949 18.87985253-.01227725 7.86863876-.01774854 15.73728034-.02319092 23.60592628-.00973753 14.03516979-.02977011 28.07030165-.04882812 42.10546875-18.48 0-36.96 0-56 0 0-27.72 0-55.44 0-84-27.72 0-55.44 0-84 0 0-18.81 0-37.62 0-57z" transform="translate(368 4)"/></g></svg>